<?xml version="1.0" encoding="utf-8"?>
<!-- Generator: Adobe Illustrator 19.0.1, SVG Export Plug-In . SVG Version: 6.00 Build 0)  -->
<svg version="1.1" id="Слой_1" xmlns="http://www.w3.org/2000/svg" xmlns:xlink="http://www.w3.org/1999/xlink" x="0px" y="0px"
	 viewBox="0 0 70.9 70.9" style="enable-background:new 0 0 70.9 70.9;" xml:space="preserve">
<style type="text/css">
	.st0{fill:#A9A8A7;}
</style>
<g>
	<path class="st0" d="M59.1,35.3c0-3.6-3.6-6.7-9.1-8.8v2.7c3.6,1.6,5.8,3.7,5.8,6.1c0,4.8-9.1,8.8-20.3,8.8s-20.3-3.9-20.3-8.8
		c0-1.7,1.2-3.3,3.2-4.7v-3c-3.9,1.9-6.3,4.5-6.5,7.4h0v16.1h0.1c0.9,5.8,11.1,10.3,23.6,10.3c12.3,0,22.4-4.4,23.6-10.1h0.1
		L59.1,35.3L59.1,35.3z M35.4,59.1c-11.2,0-20.3-3.9-20.3-8.8c0-0.4,0.1-0.8,0.2-1.1c0,0,0,0,0-0.1c4.2,3.2,11.6,5.3,20.2,5.3v-2.4
		c-11.2,0-20.3-3.9-20.3-8.8c0-0.1,0-0.2,0-0.3c0,0,0,0,0,0v-2c4.1,3.3,11.7,5.4,20.3,5.4c8.6,0,16.2-2.2,20.3-5.4v1.8
		c0,0,0,0-0.1,0c0,0.2,0.1,0.3,0.1,0.5c0,2.4-2.3,4.6-6,6.2v2.6c2.4-0.9,4.4-1.9,6-3.2v0.3c0,0.1-0.1,0.1-0.1,0.2
		c0.1,0.3,0.1,0.5,0.1,0.8C55.8,55.2,46.7,59.1,35.4,59.1z"/>
	<path class="st0" d="M38.1,26.7c1.7,0.1,3.3,0.3,4.9,0.6v-2.4c-1.6-0.2-3.2-0.4-4.9-0.5V26.7z"/>
	<path class="st0" d="M26.1,27.5c1.4-0.3,3-0.6,4.6-0.7v-2.4c-1.6,0.2-3.2,0.4-4.6,0.7V27.5z"/>
	<path class="st0" d="M33.2,20.9c0,0.1-0.1,0.2-0.1,0.3v14.3c0,0.7,0.6,1.3,1.3,1.3s1.3-0.6,1.3-1.3V21.2c0-0.1,0-0.2-0.1-0.3
		c1.7-0.5,3-2,3-3.7c0,0,0-0.1,0-0.1c0.5-1.9-4.3-7.7-4.3-7.7s-4.5,5.4-4.3,7.5c0,0.1,0,0.1,0,0.2C30.1,18.9,31.4,20.4,33.2,20.9z
		 M32.4,15.9l2-3.4l1.9,3.4h0c0.2,0.3,0.4,0.7,0.4,1.2c0,1.2-1,2.2-2.3,2.2s-2.3-1-2.3-2.2C32,16.6,32.2,16.2,32.4,15.9L32.4,15.9z"
		/>
	<path class="st0" d="M45.4,25C45.4,25,45.4,25,45.4,25l0,7.3c0,0.7,0.6,1.3,1.3,1.3s1.3-0.6,1.3-1.3V25c0,0,0,0,0,0
		c1.7-0.5,2.9-2,3-3.7c0,0,0-0.1,0-0.1c0.5-1.9-4.3-7.7-4.3-7.7s-4.5,5.4-4.3,7.5c0,0.1,0,0.1,0,0.2C42.4,23,43.6,24.5,45.4,25z
		 M44.7,20l2-3.4l1.9,3.4h0c0.2,0.3,0.4,0.7,0.4,1.2c0,1.2-1,2.2-2.3,2.2s-2.3-1-2.3-2.2C44.3,20.7,44.4,20.4,44.7,20L44.7,20z"/>
	<path class="st0" d="M21,24v9.3c0,0.7,0.6,1.3,1.3,1.3s1.3-0.6,1.3-1.3V24c1.7-0.5,2.9-2,3-3.7c0,0,0-0.1,0-0.1
		c0.5-1.9-4.3-7.7-4.3-7.7S17.8,17.9,18,20c0,0.1,0,0.1,0,0.2C18,22,19.3,23.5,21,24z M20.3,19l2-3.4l1.9,3.4h0
		c0.2,0.3,0.4,0.7,0.4,1.2c0,1.2-1,2.2-2.3,2.2s-2.3-1-2.3-2.2C19.9,19.7,20.1,19.4,20.3,19L20.3,19z"/>
</g>
</svg>
