<?xml version="1.0" encoding="utf-8"?>
<!-- Generator: Adobe Illustrator 19.0.1, SVG Export Plug-In . SVG Version: 6.00 Build 0)  -->
<svg version="1.1" id="Слой_1" xmlns="http://www.w3.org/2000/svg" xmlns:xlink="http://www.w3.org/1999/xlink" x="0px" y="0px"
	 viewBox="0 0 28.4 28.4" style="enable-background:new 0 0 28.4 28.4;" xml:space="preserve">
<style type="text/css">
	.st0{fill:#9BBC33;}
	.st1{fill:#6C851F;}
</style>
<g>
	<path class="st0" d="M24.5,27H3.8C2.3,27,1,25.7,1,24.2V0h26.3v24.2C27.3,25.7,26.1,27,24.5,27z"/>
	<g>
		<g>
			<path class="st1" d="M22.2,11.2c0-0.2-0.2-0.4-0.5-0.4L16.8,10l-2.2-4.4c-0.1-0.3-0.3-0.4-0.5-0.4c-0.2,0-0.4,0.1-0.5,0.4
				L11.5,10l-4.9,0.7c-0.4,0.1-0.5,0.2-0.5,0.4c0,0.1,0.1,0.3,0.2,0.5l3.5,3.4L9,19.9c0,0.1,0,0.2,0,0.2c0,0.1,0,0.3,0.1,0.3
				c0.1,0.1,0.2,0.1,0.3,0.1c0.1,0,0.2,0,0.4-0.1l4.4-2.3l4.4,2.3c0.1,0.1,0.3,0.1,0.4,0.1c0.1,0,0.2,0,0.3-0.1
				c0.1-0.1,0.1-0.2,0.1-0.3c0-0.1,0-0.1,0-0.2l-0.8-4.8l3.5-3.4C22.2,11.5,22.2,11.3,22.2,11.2L22.2,11.2z M22.2,11.2"/>
		</g>
	</g>
</g>
</svg>
