<svg id="Слой_1" xmlns="http://www.w3.org/2000/svg" viewBox="0 0 119.1 56.7"><style>.st0{fill:#f6d013}.st1{fill:#c01718}.st2{fill:#9b3}</style><g id="XMLID_1487_"><path id="XMLID_1905_" class="st0" d="M50.2 9.7s-1.5-.7-1-2.4 1.3-3.6 3.9-5.2S58.4.8 58.4.8s3-.1 5.8 2.9c0 0 2.3 2 2.3 5.8s-2.3 6-2.3 6-1.4 1.7-4.8 3-3.1 1.4-5.3 2c0 0-1.2.5-1.1 1.8s1.5 1.6 1.5 1.6h9.9s2.1 0 2.1 2-2 2-2 2H53.7s-4.3 0-5.1-4.1 2.7-5.9 2.7-5.9 3.3-1.6 5.6-2.3c2.3-.8 4.2-2.2 4.2-2.2s2.5-2 1.5-5.3-4.1-3.5-4.1-3.5-2.4-.5-4.3 1.4c0 0-1 1-1.3 2.5-.4 1.3-1.8 1.7-2.7 1.2z"/><path id="XMLID_1897_" class="st1" d="M97.3 45.3s-.9-1-2.5-1.8l-30-13c-.2-.1-.5-.2-.8-.2-1.1 0-1.9.9-1.9 1.9 0 .8.4 1.4 1.1 1.7h.1l29.9 13s2.5 1 1.5 3.7c0 0-.6 1.4-2.2 1.4H22.8c-1.6 0-2.2-1.4-2.2-1.4C19.5 48.1 22 47 22 47l29.9-13h.1c.6-.3 1.1-1 1.1-1.7 0-1.1-.9-1.9-1.9-1.9-.3 0-.6.1-.8.2l-30 13c-1.7.7-2.5 1.8-2.5 1.8s-2.6 2.7-1 6.8S23 56 23 56h69.3s4.5.3 6.1-3.8c1.5-4.2-1.1-6.9-1.1-6.9z"/><g id="XMLID_1282_"><g id="XMLID_1144_"><path id="XMLID_1230_" class="st2" d="M10.7 15.7c-.5-.6-1.9-1.6-2.3-1.8s0-.6 0-.6c1.4-1.1 1.8-2.3 1.8-2.3s1.3-2.6-.2-4.8C8.4 4.1 4.8 4 2.8 4 .9 4 1.2 6 1.2 6c.1.1.4 16.6.4 17.7 0 1.1.7 1.4 1.3 1.4.6 0 1.7-.1 4-.7 2.4-.7 3.5-1.9 3.5-1.9s1.2-1.1 1.4-3.1c.2-2-.6-3-1.1-3.7zM4.1 7.6s-.2-.8.7-.8c.9.1 2.4.2 2.9 1.2s-.3 2.1-.3 2.1-1.1 1.4-2.5 2.1c0 0-.7.4-.7-.5 0-.8-.1-4.1-.1-4.1zm3.5 13.3c-.8.5-2.7 1-2.7 1s-.6.2-.6-.5v-5.3s-.1-.7.7-.5c.8.2 2.1.7 2.5 1 .3.3 1.4.9 1.5 2.1 0 1.3-.6 1.7-1.4 2.2z"/><path id="XMLID_1158_" class="st2" d="M34.4 15.7c-.5-.6-1.9-1.6-2.3-1.8s0-.6 0-.6c1.4-1.1 1.8-2.3 1.8-2.3s1.3-2.6-.2-4.8C32.1 4.1 28.5 4 26.6 4c-1.9 0-1.7 2-1.7 2 .1.1.4 16.6.4 17.7 0 1.1.7 1.4 1.3 1.4.6 0 1.7-.1 4-.7 2.4-.7 3.5-1.9 3.5-1.9s1.2-1.1 1.4-3.1c.2-2-.6-3-1.1-3.7zm-6.6-8.1s-.2-.8.7-.8c.9.1 2.4.2 2.9 1.2s-.3 2.1-.3 2.1-1.1 1.4-2.5 2.1c0 0-.7.4-.7-.5.1-.8-.1-4.1-.1-4.1zm3.5 13.3c-.8.5-2.7 1-2.7 1s-.6.2-.6-.5v-5.3s-.1-.7.7-.5c.8.2 2.1.7 2.5 1 .3.3 1.4.9 1.5 2.1 0 1.3-.6 1.7-1.4 2.2z"/><path id="XMLID_1223_" class="st2" d="M22.5 18.3c-.1-1.6-.9-3.8-1-4.7-.1-.9-1.8-6.2-2.2-7.5-.4-1.4-1.1-1.6-1.1-1.6s-.2-.3-1.2.1-.6 1.6-.6 1.6l-2.2 10.2-1.5 6.9c-.2 1.5 1.1 1.6 1.1 1.6 1.3.3 1.7-1 1.7-1s.7-3.4.8-3.8c.1-.4.5-.3.5-.3h2.6c.5 0 .6.5.6.5s.3 2.3.4 3.3c.1 1 .5 1.4.5 1.4s.8.7 1.6.2c.8-.5.6-1 .7-2-.1-1.1-.5-3.3-.7-4.9zm-3.6-1.6h-1.5c-.3 0-.2-.6-.2-.6l.7-3.1s.1-.3.4-.3c.3 0 .4.3.4.3.1.1.6 2.7.7 3.2-.1.5-.5.5-.5.5z"/><path id="XMLID_904_" class="st2" d="M41.2 11.9s.2.6.6.6c.3 0 .8-.8.8-.8s1.9-5 2-5.5.6-1.5 1.4-1.4c.9 0 1.2.9 1.2.9s.3.5-.2 1.7-1.3 3.4-1.9 4.5-1.1 2.6-1.1 2.6l-.8 1.8-.1 6.4v1s.1 1.3-1.4 1.4c-1.5.1-1.3-1.7-1.3-1.7V16s-2.3-3.8-2.5-4.4c0 0-1.5-3.9-1.6-4.7s-.2-1.5 1-1.9 1.7.8 1.7 1.6c.2.8 2.2 5.3 2.2 5.3z"/></g><g id="XMLID_1439_"><path id="XMLID_1467_" class="st2" d="M81.2 15.7c-.5-.6-1.9-1.6-2.3-1.8-.4-.2 0-.6 0-.6 1.4-1.1 1.8-2.3 1.8-2.3s1.3-2.6-.2-4.8C78.9 4.1 75.3 4 73.4 4c-1.9 0-1.7 2-1.7 2 .1.1.4 16.6.4 17.7 0 1.1.7 1.4 1.3 1.4.6 0 1.7-.1 4-.7 2.4-.7 3.5-1.9 3.5-1.9s1.2-1.1 1.4-3.1c.2-2-.6-3-1.1-3.7zm-6.6-8.1s-.2-.8.7-.8c.9.1 2.4.2 2.9 1.2s-.3 2.1-.3 2.1-1.1 1.4-2.5 2.1c0 0-.7.4-.7-.5.1-.8-.1-4.1-.1-4.1zm3.5 13.3c-.8.5-2.7 1-2.7 1s-.6.2-.6-.5v-5.3s-.1-.7.7-.5c.8.2 2.1.7 2.5 1 .3.3 1.4.9 1.5 2.1 0 1.3-.6 1.7-1.4 2.2z"/><path id="XMLID_1461_" class="st2" d="M105 15.7c-.5-.6-1.9-1.6-2.3-1.8-.4-.2 0-.6 0-.6 1.4-1.1 1.8-2.3 1.8-2.3s1.3-2.6-.2-4.8C102.6 4.1 99 4 97.1 4c-1.9 0-1.7 2-1.7 2 .1.1.4 16.6.4 17.7 0 1.1.7 1.4 1.3 1.4.6 0 1.7-.1 4-.7 2.4-.7 3.5-1.9 3.5-1.9s1.2-1.1 1.4-3.1c.2-2-.6-3-1-3.7zm-6.6-8.1s-.2-.8.7-.8c.9.1 2.4.1 2.9 1.2.5 1-.3 2.1-.3 2.1s-1.1 1.4-2.5 2.1c0 0-.7.4-.7-.5 0-.8-.1-4.1-.1-4.1zm3.4 13.3c-.8.5-2.7 1-2.7 1s-.6.2-.6-.5v-5.3s-.1-.7.7-.5c.8.2 2.1.7 2.5 1 .3.3 1.4.9 1.5 2.1.1 1.3-.6 1.7-1.4 2.2z"/><path id="XMLID_1448_" class="st2" d="M93.1 18.3c-.1-1.6-.9-3.8-1-4.7-.1-1-1.8-6.2-2.2-7.6-.4-1.4-1.1-1.6-1.1-1.6s-.3-.2-1.2.2c-1 .4-.6 1.6-.6 1.6l-2.2 10.2-1.5 6.9c-.2 1.5 1.1 1.6 1.1 1.6 1.3.3 1.7-1 1.7-1s.7-3.4.8-3.8.5-.3.5-.3H90c.5 0 .6.5.6.5s.3 2.3.4 3.3c.1 1 .5 1.4.5 1.4s.8.7 1.6.2c.8-.5.6-1 .7-2-.1-1.1-.6-3.3-.7-4.9zm-3.7-1.6h-1.5c-.3 0-.2-.6-.2-.6l.7-3.1s.1-.3.4-.3c.3 0 .4.3.4.3.1.1.6 2.7.7 3.2 0 .5-.5.5-.5.5z"/><path id="XMLID_1442_" class="st2" d="M111.7 11.9s.2.6.6.6c.3 0 .8-.8.8-.8s1.9-5 2-5.5c.2-.5.6-1.5 1.4-1.4.9 0 1.2.9 1.2.9s.3.5-.2 1.7-1.3 3.4-1.9 4.5c-.6 1.1-1.1 2.6-1.1 2.6l-.8 1.8-.1 6.4v1s.1 1.3-1.4 1.4c-1.5.1-1.3-1.7-1.3-1.7V16s-2.3-3.8-2.5-4.4c0 0-1.5-3.9-1.6-4.7-.1-.8-.2-1.5 1-1.9 1.3-.4 1.7.8 1.7 1.6.2.8 2.2 5.3 2.2 5.3z"/></g></g></g></svg>