<svg id="Слой_1" xmlns="http://www.w3.org/2000/svg" viewBox="0 0 119.1 56.7"><style>.st0{fill:#888}</style><g id="XMLID_1487_"><path id="XMLID_225_" class="st0" d="M50.2 23.8s-1.5-.7-1-2.4 1.3-3.6 3.9-5.2 5.3-1.3 5.3-1.3 3-.1 5.8 2.9c0 0 2.3 2 2.3 5.8s-2.3 6-2.3 6-1.4 1.7-4.8 3-3.1 1.4-5.3 2c0 0-1.2.5-1.1 1.8s1.5 1.6 1.5 1.6h9.9s2.1 0 2.1 2-2 2-2 2H53.7s-4.3 0-5.1-4.1 2.7-5.9 2.7-5.9 3.3-1.6 5.6-2.3c2.3-.8 4.2-2.2 4.2-2.2s2.5-2 1.5-5.3-4.1-3.5-4.1-3.5-2.4-.5-4.3 1.4c0 0-1 1-1.3 2.5-.4 1.3-1.8 1.6-2.7 1.2z"/><g id="XMLID_198_"><g id="XMLID_212_"><path id="XMLID_221_" class="st0" d="M10.7 29.8c-.5-.6-1.9-1.6-2.3-1.8s0-.6 0-.6c1.4-1.1 1.8-2.3 1.8-2.3s1.3-2.6-.2-4.8c-1.6-2.1-5.2-2.2-7.1-2.2-1.9 0-1.7 2-1.7 2 .1.1.4 16.6.4 17.7 0 1.1.7 1.4 1.3 1.4.6 0 1.7-.1 4-.7 2.4-.7 3.5-1.9 3.5-1.9s1.2-1.1 1.4-3.1c.2-2.1-.6-3-1.1-3.7zm-6.6-8.1s-.2-.8.7-.8c.9.1 2.4.1 2.9 1.2.5 1-.3 2.1-.3 2.1s-1.1 1.4-2.5 2.1c0 0-.7.4-.7-.5 0-.8-.1-4.1-.1-4.1zM7.6 35c-.8.5-2.7 1-2.7 1s-.6.2-.6-.5v-5.3s-.1-.7.7-.5c.8.2 2.1.7 2.5 1 .3.3 1.4.9 1.5 2.1 0 1.2-.6 1.7-1.4 2.2z"/><path id="XMLID_217_" class="st0" d="M34.4 29.8c-.5-.6-1.9-1.6-2.3-1.8s0-.6 0-.6c1.4-1.1 1.8-2.3 1.8-2.3s1.3-2.6-.2-4.8c-1.6-2.1-5.2-2.2-7.1-2.2-1.9 0-1.7 2-1.7 2 .1.1.4 16.6.4 17.7 0 1.1.7 1.4 1.3 1.4.6 0 1.7-.1 4-.7 2.4-.7 3.5-1.9 3.5-1.9s1.2-1.1 1.4-3.1c.2-2.1-.6-3-1.1-3.7zm-6.6-8.1s-.2-.8.7-.8c.9.1 2.4.1 2.9 1.2.5 1-.3 2.1-.3 2.1s-1.1 1.4-2.5 2.1c0 0-.7.4-.7-.5.1-.8-.1-4.1-.1-4.1zM31.3 35c-.8.5-2.7 1-2.7 1s-.6.2-.6-.5v-5.3s-.1-.7.7-.5c.8.2 2.1.7 2.5 1 .3.3 1.4.9 1.5 2.1 0 1.2-.6 1.7-1.4 2.2z"/><path id="XMLID_214_" class="st0" d="M22.5 32.3c-.1-1.6-.9-3.8-1-4.7-.1-.9-1.8-6.2-2.2-7.5-.4-1.4-1.1-1.6-1.1-1.6s-.2-.3-1.2.1-.6 1.6-.6 1.6l-2.2 10.2-1.5 6.9c-.2 1.5 1.1 1.6 1.1 1.6 1.3.3 1.7-1 1.7-1s.7-3.4.8-3.8c.1-.4.5-.3.5-.3h2.6c.5 0 .6.5.6.5s.3 2.3.4 3.3.5 1.4.5 1.4.8.7 1.6.2c.8-.5.6-1 .7-2-.1-1-.5-3.2-.7-4.9zm-3.6-1.5h-1.5c-.3 0-.2-.6-.2-.6l.7-3.1s.1-.3.4-.3.4.3.4.3c.1.1.6 2.7.7 3.2-.1.4-.5.5-.5.5z"/><path id="XMLID_213_" class="st0" d="M41.2 26s.2.6.6.6c.3 0 .8-.8.8-.8s1.9-5 2-5.5c.2-.5.6-1.5 1.4-1.4.9 0 1.2.9 1.2.9s.3.5-.2 1.7-1.3 3.4-1.9 4.5-1.1 2.6-1.1 2.6l-.8 1.8-.1 6.4v1s.1 1.3-1.4 1.4c-1.5.1-1.3-1.7-1.3-1.7v-7.4s-2.3-3.8-2.5-4.4c0 0-1.5-3.9-1.6-4.7-.1-.8-.2-1.5 1-1.9s1.7.8 1.7 1.6c.2.8 2.2 5.3 2.2 5.3z"/></g><g id="XMLID_199_"><path id="XMLID_208_" class="st0" d="M81.2 29.8c-.5-.6-1.9-1.6-2.3-1.8-.4-.2 0-.6 0-.6 1.4-1.1 1.8-2.3 1.8-2.3s1.3-2.6-.2-4.8c-1.6-2.1-5.2-2.2-7.1-2.2-1.9 0-1.7 2-1.7 2 .1.1.4 16.6.4 17.7 0 1.1.7 1.4 1.3 1.4.6 0 1.7-.1 4-.7 2.4-.7 3.5-1.9 3.5-1.9s1.2-1.1 1.4-3.1c.2-2.1-.6-3-1.1-3.7zm-6.6-8.1s-.2-.8.7-.8c.9.1 2.4.1 2.9 1.2.5 1-.3 2.1-.3 2.1s-1.1 1.4-2.5 2.1c0 0-.7.4-.7-.5.1-.8-.1-4.1-.1-4.1zM78.1 35c-.8.5-2.7 1-2.7 1s-.6.2-.6-.5v-5.3s-.1-.7.7-.5c.8.2 2.1.7 2.5 1 .3.3 1.4.9 1.5 2.1 0 1.2-.6 1.7-1.4 2.2z"/><path id="XMLID_204_" class="st0" d="M105 29.8c-.5-.6-1.9-1.6-2.3-1.8-.4-.2 0-.6 0-.6 1.4-1.1 1.8-2.3 1.8-2.3s1.3-2.6-.2-4.8c-1.6-2.1-5.2-2.2-7.1-2.2-1.9 0-1.7 2-1.7 2 .1.1.4 16.6.4 17.7 0 1.1.7 1.4 1.3 1.4.6 0 1.7-.1 4-.7 2.4-.7 3.5-1.9 3.5-1.9s1.2-1.1 1.4-3.1c.1-2.1-.7-3-1.1-3.7zm-6.6-8.1s-.2-.8.7-.8c.9.1 2.4.1 2.9 1.2.5 1-.3 2.1-.3 2.1s-1.1 1.4-2.5 2.1c0 0-.7.4-.7-.5 0-.8-.1-4.1-.1-4.1zm3.4 13.3c-.8.5-2.7 1-2.7 1s-.6.2-.6-.5v-5.3s-.1-.7.7-.5c.8.2 2.1.7 2.5 1 .3.3 1.4.9 1.5 2.1.1 1.2-.6 1.7-1.4 2.2z"/><path id="XMLID_201_" class="st0" d="M93.1 32.3c-.1-1.6-.9-3.8-1-4.7-.1-.9-1.8-6.2-2.2-7.5-.4-1.4-1.1-1.6-1.1-1.6s-.3-.2-1.2.2c-1 .4-.6 1.6-.6 1.6l-2.2 10.2-1.5 6.9c-.2 1.5 1.1 1.6 1.1 1.6 1.3.3 1.7-1 1.7-1s.7-3.4.8-3.8.5-.3.5-.3H90c.5 0 .6.5.6.5s.3 2.3.4 3.3c.1 1 .5 1.4.5 1.4s.8.7 1.6.2c.8-.5.6-1 .7-2-.1-1.1-.6-3.3-.7-5zm-3.7-1.5h-1.5c-.3 0-.2-.6-.2-.6l.7-3.1s.1-.3.4-.3c.3 0 .4.3.4.3.1.1.6 2.7.7 3.2 0 .4-.5.5-.5.5z"/><path id="XMLID_200_" class="st0" d="M111.7 26s.2.6.6.6c.3 0 .8-.8.8-.8s1.9-5 2-5.5c.2-.5.6-1.5 1.4-1.4.9 0 1.2.9 1.2.9s.3.5-.2 1.7-1.3 3.4-1.9 4.5c-.6 1.1-1.1 2.6-1.1 2.6l-.8 1.8-.1 6.4v1s.1 1.3-1.4 1.4c-1.5.1-1.3-1.7-1.3-1.7v-7.4s-2.3-3.8-2.5-4.4c0 0-1.5-3.9-1.6-4.7-.1-.8-.2-1.5 1-1.9 1.3-.4 1.7.8 1.7 1.6.2.8 2.2 5.3 2.2 5.3z"/></g></g></g></svg>