<?xml version="1.0" encoding="utf-8"?>
<!-- Generator: Adobe Illustrator 19.0.1, SVG Export Plug-In . SVG Version: 6.00 Build 0)  -->
<svg version="1.1" id="Слой_1" xmlns="http://www.w3.org/2000/svg" xmlns:xlink="http://www.w3.org/1999/xlink" x="0px" y="0px"
	 viewBox="0 0 70.9 70.9" style="enable-background:new 0 0 70.9 70.9;" xml:space="preserve">
<style type="text/css">
	.st0{fill:#B2B2B2;}
</style>
<g>
	<g>
		<path class="st0" d="M9.9,26.7l-0.1,0.5l5.7,8l5.1-1.9C20.2,37,19.5,45,21,50.4c0.4,2.4,2.3,6.5,7.3,6.8v0h0.1c0.2,0,0.3,0,0.5,0
			c0.2,0,0.4,0,0.7,0H41c0.2,0,0.5,0,0.7,0c0.2,0,0.3,0,0.5,0h0.2v0c4.4-0.3,6.4-3.6,7-6l0.2-0.7c1.6-5.4,0.9-13.4,0.4-17.2l5.1,1.9
			l5.7-8l-0.1-0.5c-0.5-2.9-3.1-5.9-7.9-8.8c-3.4-2.1-6.6-3.3-6.8-3.4l-1-0.4L44.5,15c-2,3.5-8.7,3.6-9.1,3.6h0l-0.5,0
			c-1.5-0.1-6.9-0.4-8.7-3.6l-0.5-0.9l-1,0.4c-0.1,0.1-3.4,1.3-6.8,3.4C13.1,20.8,10.4,23.7,9.9,26.7L9.9,26.7z M24.6,17.2
			c2.4,3,7.1,3.7,9.4,3.9v33.6h-3.3c-0.5-3.7-3.1-5.9-7.3-5.9c-0.1,0-0.1,0-0.2,0c-1.5-6.7,0.2-17.1,0.2-17.3l0.3-2.1l-7.3,2.8
			l-3.9-5.6C13.7,22.7,20.9,18.8,24.6,17.2L24.6,17.2z M29.6,55.9L29.6,55.9z M23.9,51.3c2.5,0.1,3.9,1.2,4.3,3.3
			c-0.1,0-0.2,0-0.3,0c-2.4-0.4-3.5-1.9-4-3.2C23.9,51.4,23.9,51.4,23.9,51.3L23.9,51.3z M58.2,26.6l-3.9,5.6l-7.3-2.8l0.3,2.1
			c0,0.1,1.7,10.6,0.2,17.2c-0.1,0-0.2,0-0.3,0c-4.1,0-6.7,2.2-7.2,5.9h-3.3V21.1c2.3-0.2,7-0.8,9.4-3.9
			C49.8,18.8,57,22.6,58.2,26.6L58.2,26.6z M42.7,54.6c-0.1,0-0.1,0-0.2,0c0.4-2.1,1.8-3.2,4.2-3.3c0,0,0,0.1-0.1,0.2
			C46.1,52.7,45,54.3,42.7,54.6L42.7,54.6z M42.7,54.6"/>
	</g>
</g>
</svg>
