<?xml version="1.0" encoding="utf-8"?>
<!-- Generator: Adobe Illustrator 19.0.1, SVG Export Plug-In . SVG Version: 6.00 Build 0)  -->
<svg version="1.1" id="Слой_1" xmlns="http://www.w3.org/2000/svg" xmlns:xlink="http://www.w3.org/1999/xlink" x="0px" y="0px"
	 viewBox="0 0 70.9 70.9" style="enable-background:new 0 0 70.9 70.9;" xml:space="preserve">
<style type="text/css">
	.st0{fill:#A9A8A7;}
	.st1{fill:#FFFFFF;}
</style>
<g>
	<ellipse class="st0" cx="41.9" cy="46.5" rx="1.5" ry="1.4"/>
	<ellipse class="st0" cx="64.7" cy="46.5" rx="1.5" ry="1.4"/>
	<path class="st0" d="M33.8,35.7l-8.5-9l0,0l-0.1-0.1c-0.2-0.2-0.7-0.6-1.7-0.6h0c1.5-1.4,2.4-3.4,2.4-5.6c0-4.3-3.5-7.8-7.8-7.8
		s-7.8,3.5-7.8,7.8c0,2.2,0.9,4.2,2.4,5.6H12c-0.4,0-1.4,0.2-2.6,1.4c0,0,0,0,0,0l-7.8,8.3c-1.3,1.4-1.3,3.6,0.1,4.9
		c1.4,1.3,3.5,1.2,4.9-0.2l4.1-4.4v6.8h0v12c0,1.9,1.5,3.5,3.4,3.5s3.4-1.6,3.4-3.5V43.4h0.8v11.5c0,1.9,1.5,3.5,3.4,3.5
		s3.4-1.6,3.4-3.5V41.5h0v-5.1l3.7,4c1.3,1.4,3.5,1.5,4.9,0.2C35.1,39.3,35.1,37.1,33.8,35.7z M32,38.7c-0.4,0.4-1,0.4-1.4-0.1l0,0
		l-1-1.1l-6.9-7.3V40v1.4v0.1v11.9v1.5h0c0,0.6-0.4,1-1,1s-1-0.5-1-1h0v-1.5v-9.5c0-0.1,0-0.2,0-0.5c0-2.1-1.8-2.1-1.8-2.1h-2
		c0,0-1.8,0-1.8,2.1v9.9v1.4h0c0,0.6-0.4,1-1,1s-1-0.5-1-1h0v-1.4v-12V40V29.8l-7.4,7.8l-1,1.1l0,0c-0.4,0.4-1,0.4-1.4,0.1
		c-0.4-0.4-0.4-1,0-1.4l0,0l1-1.1l8.2-8.7h0.6h1.5h1l0-2.4c-1.8-0.9-3-2.7-3-4.8c0-3,2.4-5.4,5.4-5.4s5.4,2.4,5.4,5.4
		c0,2.2-1.3,4.1-3.2,4.9l0,2.3h0.6h2h0.1l8.2,8.7l1,1.1l0,0C32.4,37.7,32.4,38.3,32,38.7z"/>
	<path class="st0" d="M69.3,35.7l-8.5-9l0,0l-0.1-0.1C60.5,26.4,60,26,59,25.9h0c1.5-1.4,2.4-3.4,2.4-5.6c0-4.3-3.5-7.8-7.8-7.8
		s-7.8,3.5-7.8,7.8c0,2.2,0.9,4.2,2.4,5.6h-0.6c-0.4,0-1.4,0.2-2.6,1.4c0,0,0,0,0,0l-7.8,8.3c-1.3,1.4-1.3,3.6,0.1,4.9
		c1.4,1.3,3.5,1.2,4.9-0.2l4.1-4.4v0.1l-5.5,9.7l1.2,2.1h4.3v6.9c0,1.9,1.5,3.5,3.4,3.5s3.4-1.6,3.4-3.5v-6.9h0.8v7
		c0,1.9,1.5,3.5,3.4,3.5s3.4-1.6,3.4-3.5v-7h4.1l1.2-2.1l-5.3-9.3l3.7,3.9c1.3,1.4,3.5,1.5,4.9,0.2C70.6,39.3,70.6,37.1,69.3,35.7z
		 M67.5,38.7c-0.4,0.4-1,0.4-1.4-0.1l0,0l-1-1.1l-6.9-7.3v6l4.8,8.2l0,0c0.1,0.1,0.2,0.3,0.2,0.5c0,0.4-0.3,0.7-0.7,0.7h-4.2v7.7
		v1.5h0c0,0.6-0.4,1-1,1s-1-0.5-1-1h0v-1.5v-7.7h-1.9l-0.9-0.1l-0.9,0.1h-1.9v7.7v1.4h0c0,0.6-0.4,1-1,1s-1-0.5-1-1h0v-1.4v-7.7
		h-4.3c-0.4,0-0.7-0.3-0.7-0.7c0-0.2,0.1-0.3,0.2-0.5l0,0l4.8-8.2v-6.5l-7.4,7.8l-1,1.1l0,0c-0.4,0.4-1,0.4-1.4,0.1
		c-0.4-0.4-0.4-1,0-1.4l0,0l1-1.1l8.2-8.7h0.6h1.5h1l0-2.4c-1.8-0.9-3-2.7-3-4.8c0-3,2.4-5.4,5.4-5.4s5.4,2.4,5.4,5.4
		c0,2.2-1.3,4.1-3.2,4.9l0,2.3h0.6h2h0.1l8.2,8.7l1,1.1l0,0C67.9,37.7,67.9,38.3,67.5,38.7z"/>
	<rect x="50" y="43.8" class="st1" width="7" height="2"/>
</g>
</svg>
